PathFileType	4	(X/Y/Z)	55_2_100_p0_0-404_filt_butterworth.trc
DataRate	CameraRate	NumFrames	NumMarkers	Units	OrigDataRate	OrigDataStartFrame	OrigNumFrames
49.0	49.0	7	27	m	49.0	151	404
Frame#	Time	RHip			RKnee			RAnkle			RBigToe			RSmallToe			RHeel			LHip			LKnee			LAnkle			LBigToe			LSmallToe			LHeel			Neck			Head			Nose			RShoulder			RElbow			RWrist			RThumb			RIndex			RPinky			LShoulder			LElbow			LWrist			LThumb			LIndex			LPinky			
		X1	Y1	Z1	X2	Y2	Z2	X3	Y3	Z3	X4	Y4	Z4	X5	Y5	Z5	X6	Y6	Z6	X7	Y7	Z7	X8	Y8	Z8	X9	Y9	Z9	X10	Y10	Z10	X11	Y11	Z11	X12	Y12	Z12	X13	Y13	Z13	X14	Y14	Z14	X15	Y15	Z15	X16	Y16	Z16	X17	Y17	Z17	X18	Y18	Z18	X19	Y19	Z19	X20	Y20	Z20	X21	Y21	Z21	X22	Y22	Z22	X23	Y23	Z23	X24	Y24	Z24	X25	Y25	Z25	X26	Y26	Z26	X27	Y27	Z27	
151	3.0816326530612246	0.3134362853627719	0.9778829396560005	0.46350100754304774	0.30499509148687803	0.551094643602652	0.5140537693967282	0.3075236101556437	0.09116694722095894	0.6297305963359553	0.29300734852561683	0.08037467320796524	0.43023477377511365	0.35908815460492616	0.0714747316804454	0.44963481769977015	0.2953961507223093	0.04870171680652111	0.6579426760830789	0.1290523456295264	0.9694957648597708	0.47888004112104154	0.12025357095640621	0.5380673081525221	0.5659987474123982	0.1394034943903533	0.1301072303164948	0.606460398735639	0.12028581113643311	0.11721360424223365	0.3864669363456755	0.07233677248836545	0.08685123764857156	0.46152844728453574	0.15690553301627538	0.05634352708696768	0.6578802513294486	0.22433073356409589	1.5344388632839496	0.47267195377768506	0.2266540635031656	1.7620768387240402	0.4564080518600239	0.2020136586750587	1.6583685768161593	0.351603171153466	0.3431732780101512	1.4790748792006636	0.4668475219774717	0.4230370665139232	1.4894205064627384	0.2462447356467932	0.3759652943900459	1.6837539006248385	0.2085459529019516	0.3486224055168595	1.786199824088029	0.3113075069942517	0.35061860870990785	1.7966747261408496	0.26566357580519323	0.3647061979864626	1.7737660179658767	0.19009566390851318	0.07655808493913684	1.4834680283857697	0.5156418119464244	-0.04253124891951929	1.5212525521392282	0.30600183664674857	0.06836666897815971	1.6892624415432649	0.2754637994420709	0.14584692723114429	1.7624397541249066	0.2571363454446017	0.13783715711669592	1.787742100365945	0.2630698339814157	0.09993247919719536	1.7756444609134272	0.26777770337835655	
152	3.1020408163265305	0.3130963788447827	0.9785047118294756	0.46310587008868764	0.3054983097136357	0.5510709352369673	0.5144573910186578	0.3073027733934458	0.09041997445483668	0.6301824487369482	0.29343188690295763	0.0794390087356826	0.43073496527209787	0.35920428292727447	0.0710707066730256	0.44997542018488546	0.2951750828405582	0.04953884979750078	0.657546537291915	0.12996327928032125	0.9701534522124327	0.47732736831198197	0.12019221433070339	0.5383058860290095	0.5662440979406933	0.13931277208644885	0.12951160272367215	0.6067745095329012	0.12031874512413004	0.1171609462105531	0.38659386246203326	0.07234660309351422	0.08679407040978218	0.46150103444419405	0.15680627700856029	0.05661031213400565	0.6578719422632268	0.22368603929825326	1.535568023149026	0.47036165611935876	0.22510314392452532	1.759473703076575	0.4567518784307273	0.20175658609923025	1.658261988071589	0.349617924154615	0.3411169034476794	1.4824534903770978	0.46968088478529435	0.4190739693886314	1.503555020636039	0.2477242385753366	0.36700757652282945	1.697733441363126	0.1993407032295986	0.33392130471119436	1.8001174112068126	0.2911234564419352	0.33791980305670877	1.8110148620948137	0.2490763476333277	0.35634053008045513	1.7909825400787296	0.1802400063788686	0.07813840176629991	1.4838666881113605	0.5158358177642928	-0.02848038089710842	1.538015670734836	0.2993962394244484	0.07969315575082299	1.7064473596099434	0.27459884655828204	0.1520917295916548	1.7777855367770539	0.25337498443530837	0.14591507001353032	1.7991705888057339	0.25529517946102387	0.11286335287918481	1.7858054019505778	0.2617099365852673	
153	3.122448979591837	0.31275698478516745	0.9789671248641916	0.4628393168754476	0.30584191317345993	0.5510973449078321	0.5144925947684035	0.3072085750657907	0.09001466553783932	0.6299606191283685	0.29399385931383915	0.07841440613364027	0.43150776693651777	0.359192105943536	0.0710833745063933	0.44995199034122474	0.2950678830918192	0.050041964842079956	0.6574801898251683	0.130714930525683	0.97079207110599	0.4763202289006217	0.12019997845180594	0.5385874028553052	0.566186876515242	0.13929703041342617	0.12912076312283122	0.6068179752350285	0.12034447197290093	0.11716987056810362	0.3866141712114967	0.07237767183562287	0.08643745767298468	0.4613725329086154	0.15667376578485198	0.05687263143975282	0.6578073236003498	0.2234973552385384	1.5354097415869739	0.47006192793290213	0.22319612277326936	1.7562533384213186	0.455573035593836	0.20187211103552452	1.656930303224844	0.348102339997335	0.3399017393951275	1.4843667391363742	0.47306389828067735	0.41445526607222505	1.5158385132962306	0.24631454940501157	0.3572592397084164	1.7101980429222372	0.19318797589743295	0.31880290208235834	1.8099018307687278	0.27153037816322867	0.3245302508387806	1.8233309834948415	0.23551729330410376	0.34808192232306756	1.807543586776278	0.17031166708165268	0.08118733928357458	1.4839464388520893	0.5172559362878472	-0.015458982710366035	1.55202362979796	0.2944797044447999	0.08966529258173545	1.7204705924064823	0.2732831504229286	0.15550111092327945	1.7894537013442828	0.24636675331626276	0.15155525598471423	1.8076820374517446	0.2445578954869237	0.12235361531382075	1.7955340355651246	0.25409540701896843	
154	3.142857142857143	0.3124627173868537	0.9793029015710224	0.4624945705227235	0.3060929557994041	0.5510996907646265	0.5143450798331334	0.30724923120099196	0.08999346763674013	0.629147042890195	0.2946065623590789	0.07746054359428865	0.43250202817908306	0.3592236054017812	0.07123577278823784	0.44994415098508495	0.2950479940437341	0.05033898554262053	0.6576607573163905	0.13131706493543824	0.9713518531940288	0.47581993551605717	0.12027543056111432	0.5389648334091992	0.565866388490043	0.13936833656646125	0.1289736083945331	0.6065433316279428	0.12037193244434062	0.11724842501811729	0.3865026619530579	0.07243073151518023	0.08581935143538219	0.4611205422192718	0.15651230686573273	0.05709263475588426	0.6576574472353909	0.22372531327480505	1.5341173241383668	0.47174964138612513	0.221390488494886	1.7528915498171627	0.4536314764005245	0.20249569436174386	1.6542950424560021	0.34662903574078857	0.33925888860329284	1.4848538645790115	0.47655859153791824	0.40805688633608783	1.5281179884678595	0.24070053503552485	0.3464955763174701	1.7218276458264246	0.19084967025455918	0.3037140987959524	1.8164598755932577	0.25382823890449613	0.31065139980887324	1.834107260469914	0.22581188031816757	0.3379348998138223	1.8228568698794323	0.15868045421058216	0.08513020509822927	1.483647282097652	0.5196929788710645	-0.004072769491956529	1.564117325282075	0.29214441018165904	0.0984576588428804	1.732016115632264	0.27054330839756713	0.15625991268515246	1.7972584925845854	0.2402113659334724	0.15583648065483813	1.8144659965687295	0.23408838530478088	0.13000401478916904	1.8063708614029672	0.2452120032213101	
155	3.163265306122449	0.31225390443166173	0.9796756630585504	0.46198172365083934	0.3063546650248568	0.5510489754652542	0.5143012626647844	0.3074262947297125	0.09039270089023395	0.6279021608818534	0.29507564900990324	0.0768328032922728	0.4334595897733052	0.3593207625394046	0.07131393545892216	0.4500561944062526	0.2950041966238331	0.05078890587496236	0.6577913431759087	0.13184440664255706	0.9717230511623248	0.47551129770274714	0.12041571448705558	0.5394742863966067	0.5653246127464583	0.13950322476804816	0.12903851600654856	0.6060121704337059	0.12040063795512429	0.11736942664262942	0.3862993150082449	0.07249836393269644	0.08504963819459709	0.46078095230595423	0.15630865646869163	0.057456222386958286	0.6572923922869524	0.2242187010776733	1.5322477188449846	0.4742733025010994	0.2200222218990352	1.749858479941691	0.45167362829063756	0.20372325856133153	1.6506844219773753	0.3448984970238967	0.33903725126552	1.4844637088301686	0.47968972139960364	0.4001271942071263	1.5403355603800135	0.23249501459529454	0.3352785371061902	1.7320148684712366	0.1921268062289465	0.28957886301766633	1.8206685840253183	0.2391067045744797	0.2970257323352794	1.8436097171682588	0.2172787529862769	0.325307306935428	1.8354689190971092	0.14513010981232075	0.08890974751629441	1.483166158336519	0.5225464055292117	0.0051894394413783875	1.574803444268885	0.2902874370983337	0.10592158690996932	1.7413061358464097	0.2672608486811778	0.1549255967913042	1.801856626023042	0.23685057125206332	0.1586395008174436	1.8201584295413142	0.2282532144559289	0.1368419246830465	1.8179492224927802	0.23760371208101874	
156	3.183673469387755	0.31213941130873235	0.9801978413052372	0.461339032615535	0.3066413086585587	0.550977938857772	0.5144175908156763	0.30770231737635256	0.0911853476735199	0.6263078189484977	0.2952623134621899	0.07664903216055702	0.43419986298559454	0.35940750668607097	0.07134947880079572	0.45014641649017123	0.2947554891592945	0.05165743488905723	0.6573880479125297	0.13234612944858584	0.9719528996050814	0.47512778830792246	0.12061477582412541	0.5400923905108064	0.5645892243271584	0.13963389095467574	0.12917634341715187	0.6054722146994405	0.12042143401159502	0.11748210045731992	0.3860902374181431	0.07256743785293521	0.08423440487216771	0.46041503646266757	0.15608552490797975	0.058162238397803906	0.6567247430867338	0.2248604162533257	1.5302980103937385	0.47646804143239585	0.21928143520323556	1.7473812295304991	0.44995997117300424	0.20549698997924482	1.6466342699338998	0.34278675423722493	0.3393189878725195	1.483601732949003	0.48174760524446447	0.39176501949047726	1.5509168018582296	0.22359566563867034	0.32439826152279	1.7397334049442221	0.19597362529625179	0.27707203397323515	1.8230439986430673	0.22803440810585923	0.2845118965196952	1.8515255288100685	0.207899381584219	0.31156571675179096	1.844253346453182	0.13223365942529525	0.09179091626980097	1.4826781203688637	0.5253435281731126	0.011860280784844262	1.5833874896609914	0.28634324555454094	0.11171603492945648	1.7481666320611182	0.2648297332232268	0.15252101732130838	1.8041324929769003	0.2361227612631974	0.1596960702472059	1.8248770099931153	0.22855432096705075	0.142544568594667	1.8285467716323105	0.2330979215099664	
157	3.204081632653061	0.31212929625989627	0.9808014921002717	0.460657989014707	0.3069021667053381	0.5509125392934949	0.5145722015140763	0.30800916171141607	0.09231026855875807	0.6244260328027988	0.2952440578069644	0.07679265967584281	0.4347951449219567	0.35945122311111416	0.07140550476824786	0.45016051650415134	0.2942770690940599	0.052805728921761955	0.6563815553478096	0.1328071500564194	0.9722415039780662	0.4746740056979247	0.12086510343354924	0.5407603437890872	0.5636865199787189	0.13970156910565237	0.12924807878000297	0.6051669501945904	0.12042782629848495	0.11755571610064355	0.3859354488081207	0.07262628357078223	0.08347568775893804	0.4600810938016311	0.15591167437588385	0.05905453952585091	0.6561927002781551	0.22564265888558419	1.528530923061951	0.47792292255501906	0.21940336009792222	1.745764781948515	0.4486513850963724	0.20755488819911744	1.6428229351256007	0.3406530903596653	0.3401197480206162	1.4825374311862973	0.4820402592301578	0.38374234300556087	1.558521639720836	0.2143685388243541	0.31483617129074515	1.744417378649391	0.20179389586979407	0.26653390157413326	1.8238269203105848	0.22203814221292573	0.2741318539756178	1.8569157270370733	0.2001484858097168	0.29924697840771053	1.8492538690479416	0.12466103074135239	0.09368622913980533	1.482146228014932	0.5277815847530309	0.01585745686137338	1.5882435422918502	0.28075046329579956	0.1154764927985922	1.7525492993430378	0.264021517707697	0.14997587149491634	1.8047272877329583	0.2370948034101512	0.15894829017299683	1.8284295976516405	0.2334515030173138	0.146374416268908	1.8362740842061769	0.23127209082585393	
